<svg xmlns="http://www.w3.org/2000/svg" viewBox="0 0 500 500" enable-background="new 0 0 500 500"><path fill-rule="evenodd" clip-rule="evenodd" fill="#ffffff" d="M239.4 1.1c80.4-3.8 139.6 30 181.2 68.2 42.4 38.8 74.6 94.7 78.3 171.7 3.9 81.7-29.9 139.5-68.1 181.1-40 43.5-95.9 74.7-171.8 78.3-80.8 3.8-139.2-29.3-181.2-68.2-42.4-39.1-74.7-94.3-78.3-171.7-1.9-39.3 6.4-76.5 18.6-105 25.4-59.2 64.1-100.4 121-129.1 19.9-9.9 43.9-18.6 71.1-22.8 9.7-1.5 20-2.1 29.2-2.5zm6 11.4c-38 0-69.9 9.7-96.9 22-27.6 12.5-50.5 30.1-69.9 49.5-20.5 20.5-35.5 43.2-47.8 71.5-11.9 27.4-20 60.1-19.9 98.6.3 72.7 31.9 127.5 71.1 166.8 19.5 19.5 43.1 35.7 71.1 48.3 26.4 11.8 62.4 21.9 99 20.3 75.1-3.2 127.1-31.9 166.8-71.5 19.3-19.3 36.5-42.8 48.7-70.7 11.4-26.1 21.9-62 20.3-99-3.2-76.7-31.6-127.3-71.5-167.2-19.6-19.6-42.8-35.8-71.1-48.2-26.2-11.5-62.3-22.1-99.1-20.3-.3-.1-.6-.1-.8-.1zm27.1 15.2c26.7-5.5 24.2 39.7 9.3 46.1-5.4 2.3-13.6.9-17.3-2.1-12.2-9.6-5.9-41.1 8-44zm1.2 35.6c3.1.6 4.1-2.8 4.6-7.6.9-7.1 2.4-18.2-4.6-14.8-.4 4.5-5.6 21.2 0 22.4zm-30.5-35.2c-.6 8.1 1.2 16 0 23.3-2.5-8.1-5.8-15.3-8.5-23.3h-10.6c.5 15.3.7 30.9.8 46.6 3.8-.1 8.3.4 11.4-.4.5-8.7-.9-15.8 0-22.9 2.9 7.4 5.3 15.3 8 22.9 3.6.8 9.1.3 11.4 0-.9-15.2-.9-31.3-1.7-46.6-3.9-.3-6.7.7-10.8.4zm-52 4.7c.7 3.5 1.4 7.1 1.7 11 2.3-.1 5.1.3 6.8-.4 1.6 11.7 3.2 23.3 4.7 35.1 4.6-.2 8.3-1.3 12.3-2.1-1.9-11.5-3.7-23.1-5.1-35.1 2.4.3 3.6-.6 5.9-.4.4-2.9-.9-7.5-.8-11.4-8.9.7-17.2 2-25.5 3.3zm124.4 2.5c-21.4-2.2-34.1 47.6-6.4 47 11.8-.3 15.1-12 18.6-21.6-4.2-2.4-8.9-4.3-14-5.9-.8 3-2.1 5.5-3.4 8 .2 1.7 2.7 1.3 3.4 2.5-1.5 2.6-3.5 6.4-8 4.7-2.9-5.2 7.2-30.3 11.4-18.2l12.7 4.7c2.1-13-5-20.2-14.3-21.2zm-137.1 1.3c-6.3 2.7-13 5-19.5 7.6 5.5 14.8 11.1 29.5 16.9 44l19.9-7.6c-1.3-3.4-2.1-7.2-4.2-9.7-2.6 1.7-5.9 2.6-8.9 3.8-.5-3-2.3-4.8-2.5-8 3.2-.9 6.3-1.9 8.5-3.8-1.4-2.7-2.6-5.6-3.4-8.9-3.7.6-6 2.5-9.3 3.4-.7-2.7-2.1-4.7-2.5-7.6 3.2-.9 5.9-2.3 8.9-3.4-.8-3.8-2-7.2-3.9-9.8zm169.7 44.9c-.5 5.8-.4 14.1-.8 19.9-3.9-1.9-7.1-4.4-11-6.4 0-5.4.9-9.8.8-15.2-2.5 3.8-4.4 8.2-6.8 12.3-4-1.2-6.5-3.9-10.1-5.5 6.9-13.9 14.5-27 21.6-40.6 4.4 2.4 11.9 4.8 16.1 8.5 9.4 8.1 6.4 26.1-9.8 27zm-4.2-12.7c6.8 3.3 9.7-6.8 3.4-7.6-1 2.7-3 4.3-3.4 7.6zm-234.1 11c2.1 12.3 16.2 8.8 26.7 10.6 1.9.3 4.7 1.2 5.1 3.8-1.8 2.6-9.8.6-12.3 1.3l-1.7 10.6c15.1 4.7 32.2-1.3 26.7-17.8-2-5.9-9.4-8.8-16.5-9.3-4.8-.4-11.6 1.5-14.8-3 1.3-3.4 7.3-1.8 10.6-1.3.8-3.4 1.8-6.7 2.5-10.2-13-4.2-28.8.3-26.3 15.3zm263.3-5.1c.1 1.1 8.1 6.5 8.5 6.8 1.3 1.1 7.1 7.3 8.5 7.2 2-.2 5-7.6 6.4-8.5-5.9-4.6-11.1-9.7-17.4-14-.2 1.8-6.3 6.7-6 8.5zm-133.8 4.7c55-2.6 97.9 18.2 126.6 45.3 27.4 25.9 53 65.4 54.6 116.8 1.8 57.6-18.3 95.8-45.7 125.7-27.4 29.8-64.1 51.2-116.8 54.6-53.9 3.5-98.2-19.6-125.7-45.3-29.4-27.4-52.1-65-54.6-116.8-2.6-54.1 18.3-96.8 44.9-124.9 20.3-21.4 45.3-39.9 79.2-49.5 11.4-3.3 25.2-5.4 37.5-5.9zm-33 16.9c-31.6 9-55.9 25.1-74.5 45.3-24.4 26.6-45 64.5-42.7 117.2 2.1 48.7 24.5 84.2 51.2 108.8 27.2 25.1 66.1 45.6 116.4 42.8 48.4-2.7 82.9-23.1 109.2-50.4 24.9-25.9 45.3-65.2 43.2-116.8-2-48-24.3-85.1-50.8-109.2-26.9-24.4-65.2-46.2-116.8-43.2-11.9.7-24.1 2.3-35.2 5.5zm164.7-16.9c-7.3 7.9-15.9 14.5-23.3 22.4 3.3 2.1 6.3 4.4 9.7 6.3 4-3.2 8.5-8.1 12.3-10.2-2 4.9-4.5 9.3-6.3 14.4 2.7 3.1 6.1 5.4 9.3 8 4.5-9.7 9.4-19.1 13.5-29.2-5-4-9.6-8.4-15.2-11.7zm-279.8 9.3c-2.5 2.4-5.4 4.5-7.2 7.6 8 13.7 16.4 27.1 24.1 41.1 3.4-1.5 4.7-5.2 8-6.8-4.2-8.5-10.1-15.3-14.4-23.7 8.2 4.5 16.1 9.3 24.1 14 2.4-3.1 5.5-5.5 7.6-8.9-14.2-7.6-27.6-16.1-42.2-23.3zm317 0c-11.2 11.1-23.2 21.4-33.9 33l8 7.6c5.2-4.1 9.5-9.1 15.2-12.7 1 2.1 2.5 3.7 4.2 5.1 1.9-3.1 5.5-4.3 7.2-7.6-1.2-1.9-3.4-2.8-4.2-5.1 1.3-.4 1.3-2.1 3-2.1 1.7 1.8 3.4 3.6 5.1 5.5 3.6-2.6 6.7-5.7 9.3-9.3-4.6-4.8-9-9.8-13.9-14.4zm15.3 35.9c1.1-.9 8.8-6.5 8.9-7.6.1-1.4-7.2-7.8-7.2-8.5-12 9.7-24.9 18.6-36.4 28.8 2.1 2.8 4.4 5.5 6.3 8.5 8.1-5.8 19.2-14 28.4-21.2zm-364.5 6.4c3.6 1.4 5.9 4.3 9.7 5.5 1.3-2.8 2.9-5.3 4.6-7.6 3.9 4.7 19.5 8.6 19.5 15.7 0 3.6-3.2 4.2-5.1 6.8 3.9.6 5.5 5 9.3 4.7 3.9-.4 8.6-9.7 7.6-15.2-2.6-13.9-28.9-21.5-35.1-28.4-3 6.5-7.5 11.7-10.5 18.5zm147.3-11.9c4.7 22.8 19.9 40.5 47.4 38.1 21.3-1.8 33.5-17.2 37.7-37.2 1.3-.5 2.5 1.3 3.4 2.1 5.8 5.7 11.4 11.8 17.8 18.2 1.2 1.2 7.2 6.6 7.2 7.2.1 1.7-7.7 7.7-8.9 8.9-3.5 3.5-5.7 6.2-8.9 8.9-2.9-1.8-4.4-4.8-7.2-6.8-7.7 6.5-15.3 13.2-26.7 16.1 1.2 3.3 4.7 4.7 7.2 6.8 38.9 32.5 79.9 65.6 119.4 98.2-3.6 6.2-7.4 12.1-11.4 17.8h-8.5c3-6.3 7-11.6 10.2-17.8h-8c-4.3 5.3-7.2 12-11 17.8h-9.3c3-5.7 5.7-11.8 8.9-17.4-1.9-.9-5.4-.2-8-.4-3.4 5.6-5.9 12.1-9.3 17.8h-7.2c-1 19.6-.1 41.1-.4 61.4h-182.9c-.6-17.9-.8-41.7 0-61-1.9-.9-5.4-.2-8-.4l-8.5-17.8h-8.5c2.4 6.4 6.4 11.1 8.5 17.8h-8.9c-3.5-5.9-7-11.9-10.6-17.8h-8c1.8 5.7 7.1 11.6 9.7 17.8h-8.9c-3.6-5.9-7.3-11.6-11-17.4 41.7-35.6 85.1-69.5 127-105-10.9-3.4-19.6-9.2-26.6-16.5-3.4 1.5-4.6 5.2-8 6.8-5.6-6-11.5-11.7-17.3-17.3 8.9-9.8 18.3-19.2 27.6-28.9zm42.4 67.8c-6.8 5-14 12-20.3 17.4-2.1 1.7-5.7 3.2-5.1 5.1h52.1c-7.6-7.2-17.4-15.8-26.7-22.5zm-90.6 110.4h8c-2.1-6.2-5-11.7-7.2-17.8h-8c2.1 6.2 5 11.6 7.2 17.8zm16.1 0h7.6c-1.8-6.1-4-11.8-5.9-17.8h-7.6c1.5 6.4 3.8 12 5.9 17.8zm14.8 0h7.6c-1.1-6.4-3.1-11.8-4.7-17.8h-7.6c1.4 6.1 3.4 11.6 4.7 17.8zm14.8 0h7.2c-.7-6.4-2.2-11.9-3.4-17.8h-7.2c.3 5.1 2.2 12.3 3.4 17.8zm14 0h7.6c-1.2-5.6-1.4-12.2-2.5-17.8h-7.2c.3 6.3 1.3 11.9 2.1 17.8zm13.9 0c2.4-.3 5.9.6 7.6-.4-1-5.3-.6-12.1-1.7-17.4h-7.2c.5 6 .6 12.2 1.3 17.8zm13.6 0h7.6v-17.8h-7.6v17.8zm13.9 0h7.2c.6-5.8.8-11.9 1.3-17.8h-7.6c-.1 5.9-1.1 13-.9 17.8zm16.1-17.8c-1.1 5.7-1.6 12-2.5 17.8h7.6c.6-6 1.7-11.5 2.1-17.8h-7.2zm15.3 0l-3.8 17.8h7.6c1.2-5.9 2.7-11.4 3.4-17.8h-7.2zm15.6 0c-1.6 5.8-3.6 11.4-4.7 17.8h7.6c1.3-6.2 3.1-11.8 4.7-17.8h-7.6zm16.1 0c-1.9 6-4.3 11.5-5.9 17.8h7.6c1.9-6 4.4-11.4 5.9-17.8h-7.6zm16.9 0c-2.3 6-5.2 11.5-7.2 17.8h8c2.1-6.3 4.9-11.7 7.2-17.8h-8zm-168 35.6h14.4c.2-2.4-.1-10.6 0-14h-14.4v14zm141.4 0h14.4v-14h-14.4c0 3.3-.3 10.9 0 14zm-141.4 19.5h14.4c.1-3.1-.1-9.5 0-14h-14.4v14zm141.4 0h14.4v-14h-14.4c-.2 3.2.1 9.4 0 14zm-141.4 19.4h14.4c-.2-4.8.3-11.6 0-14h-14.4v14zm141.4 0h14.4v-14h-14.4c-.2 4.9-.1 10 0 14zm134.6-221.3c-3.3-6.8-14.9-9.1-20.7-3.4-3.1 3-4.4 8.3-5.1 13.1-.7 5.1.1 11.6-5.1 13.5-3-2.1-.8-8.5 0-11.9-3.5-1.1-6.9-2.4-11-3-1.8 7.7-4.4 17.5 0 23.7 3 4.2 10.5 6 16.1 4.2 7.1-2.2 9.3-10.5 10.6-18.2.6-4-.3-9.9 4.2-11.4 2.6 2 .8 8.1 0 10.6 3.1 1.2 6.1 2.6 9.7 3.4 2.4-5.1 4.1-14.8 1.3-20.6zm-393.2 4.2c-2 3.5-4.1 6.9-5.9 10.6 14 7.5 27.1 15.8 41.5 22.9 1.4-4 4.1-6.7 5.5-10.6-14-7.5-27.3-15.4-41.1-22.9zm-14 26.3c6.6 5.2 15.7 10.3 21.2 15.2-8.6-1.5-16.8-3.5-25.4-5.1-1.1 3.9-2.4 7.5-3.4 11.4 16.4 2.1 32 5 48.7 6.8.8-3.6 2.4-6.4 3.4-9.7l-38.9-29.6c-2.1 3.5-4.1 7-5.6 11zm417.7-4.7c-14 6.1-29 11.4-43.2 17.3 1.3 3.7 2.6 7.2 4.2 10.6 5.4-2 10.1-4.5 15.7-6.3-1.6 4.2-12.5 8.7-13.1 13.1-.5 3.4 3.1 6.4 3.4 10.6l19-18.2c8.6.7 18 2.9 25.8 3l-4.7-11c-6.4-.4-12.5-1.1-18.2-2.1 5-2.4 10.4-4.3 15.7-6.3-1.2-3.9-2.2-7.9-4.6-10.7zm-432.1 58.4c3.5.7 7.2 1.3 11.4 1.3.1-2.3.6-4.2 1.3-5.9 12.1 1.3 22.9 3.9 35.1 5.1.3-4 .7-8.1 1.3-11.9-11.5-2.1-24-3.1-35.1-5.5.2-2.2.8-4 1.3-5.9-3.7-.8-7.6-1.4-11.4-2.1-1.7 8-3 16.2-3.9 24.9zm401.2-1.7c8.3 1.5 19.1.7 26.7 3-8.8 2.6-16.8 6-25.4 8.9.5 3.8 1.2 7.3 1.3 11.4 15.2-5.8 29.9-12.2 44.9-18.2-.3-3.8-.3-7.9-1.3-11-16.2-1.3-31.9-3-47.8-4.7.2 3.9.9 7.3 1.6 10.6zm-403.3 17.8c.3 4-.5 6.9-.4 10.6 15.8 4.4 30.2 10.1 46.1 14.4.7-3.2 0-7.6.9-10.6-8.8-2.6-18.5-4.3-26.2-8 9.3-1.4 18.1-3.4 27.1-5.1-.8-4 1.7-8.9-.4-11.4-15.8 3.3-31.9 6.2-47.1 10.1zm406.3 8c.2 3.7-.5 8.4.4 11.4 15.3-.6 31.2-.7 46.6-1.3-.9-3.3.5-9-1.3-11.4-14.8.9-30.5.9-45.7 1.3zm9.8 13.2c-5.2 4.3-13.8 10.1-13.6 19.1.1 4.2 3.2 10.6 8 12.3 10.3 3.6 15.9-3.2 20.3-7.6 3-3 6.5-8.2 11.4-6.8-.3 4.7-4.7 5.4-6.3 8.9 1.6 2.7 3.5 5.2 5.1 8 5.9-3.8 12.6-8.3 13.6-16.1.7-5.9-2.9-10.9-5.5-12.7-13.2-9.5-22.9 11.5-32.2 14-.1-.9-1.1-.8-1.3-1.7 1.1-4.4 5.3-5.7 7.2-9.3-2.3-2.7-3.8-6.1-6.7-8.1zm-369.1 6.3c-2.6-.4-7.4.5-10.6.8.4 2.6.8 5.1.8 8l-36.4 3.8c-.2 4.4.9 7.6.8 11.8 15.6-1.7 31.2-3.5 47-5.1-.5-6.3-1.4-12.5-1.6-19.3zm-23.3 44c9.5 1.1 9.9-15.1-.8-12.3-6.7 1.8-5.4 11.6.8 12.3zm404.2 0c9.5.9 9.4-15.4-1.3-12.3-6.4 1.9-4.8 11.7 1.3 12.3zm-387.7 26.7c.6 10.3-9.5 14.6-17.8 11.4-8.1-3.2-10.7-15.6-13.6-23.3 13.8-5.7 27.6-11.3 41.5-16.9 1.6 4.6 6.7 9.8 7.6 15.2 1.9 10.9-7.4 17.5-17.7 13.6zm5.9-14.8c-2.8.3-4.3 1.9-6.8 2.5.2 7 11.2 3.9 6.8-2.5zm-14.4 11.4c.7-5.4-4-3.9-8-1.7-.3 5.9 7.4 6.6 8 1.7zm361.9 4.2c8.9 7.9 18.8-1.5 26.7-4.2 1.8-.6 5.6-2.4 7.2.8-1.9 3.8-7.2 4.1-10.1 6.8 1.8 2.9 1.9 7.7 4.2 10.1 7.7-4.3 19.1-6 19.5-16.5.5-11.7-11.3-17.6-22-13.5-6.1 2.3-11 8.6-16.9 5.5 1.1-3.9 5.4-4.5 8.9-5.9-1.4-2.9-1-7.8-3.4-9.7-13.7 1.3-25.2 16.7-14.1 26.6zm-329.7-2.1c.4-.1.4.2.4.4 4 7.5 14.1 18.9 7.2 29.2-3.6 5.4-12.5 8.2-20.7 4.7-3.9 5-6.6 11.2-11 15.6-1.9-3.5-4-6.7-5.9-10.1 2.4-4.7 5.7-8.4 8.5-12.7-3.4.9-7.6 4.5-11.4 6.4-3-2.2-4.1-6.3-6.3-9.3 12.3-8.7 26.3-15.9 39.2-24.2zm-10.2 20.3c1.8 6.8 12.8.3 6.8-4.2-2.1 1.6-4.6 2.7-6.8 4.2zm321.3 1.3c3.4 1.4 5.8 3.8 9.3 5.1 2.5-1.5 2.5-5.4 5.1-6.8 3.2 3.5 18.6 7.8 19.5 13.6.6 3.5-1.8 6.1-5.1 7.6 3.4 1.4 5.8 3.8 9.3 5.1 11.1-5.7 8.9-20 0-26.7-7.1-5.3-21.6-11.6-27.9-16.1-3.1 6.4-7.3 11.6-10.2 18.2zm-2.5 19c0-1.6 6.5-6.1 6.3-7.6-.1-1.1-7.4-5.3-8-6.4-2.7 3-4.1 5.2-7.2 8.9-1.4 1.7-6.5 6.4-6.4 7.6.1.7 7 6 8.9 7.6 7.1 6 11.4 9.3 18.2 14.8 1.8 1.5 7.9 7.8 9.3 7.6.9-.1 5.7-6.7 6.8-8 2.6-3.2 4.1-5.7 6.8-8.5-2.8-2-4.8-4.8-8-6.3-2.5 2-3.7 5.3-6.3 7.2-1.9-2-4.8-2.8-5.9-5.5 1.8-2.4 4.2-4.3 5.5-7.2-3.1-1.5-4.8-4.5-8-5.9-2.3 2.1-3.6 5.1-6.4 6.8-1.6-2.8-5.6-2.2-5.6-5.1zm-291.3-11.4c-2 2.8-5.8 3.8-7.2 7.2 1.5 1.5 3.2 3.3 5.1 5.5 1.3 1.5 3.6 5.9 5.1 5.9.6 0 3.2-2.8 3.8-3.4 1.6-1.4 2.7-2.7 3.8-3.8-3.7-3.6-6.2-8.4-10.6-11.4zm-13.5 29.6c1.8-1.5 12.7-8.4 12.7-10.6 0-.8-7.1-7.9-8.5-8.9-7.7 7.5-16.6 13.9-24.6 21.1 2.8 2.9 4.9 6.4 8 8.9 3.6-2.5 7.1-6.1 12.4-10.5zm.4 25.9c1.9 3.3 5.3 5.2 8 7.6 13.8-8.9 27.4-18 41.5-26.7-2.3-3.4-5.9-5.4-9.3-7.6-7 4.7-13.6 9.9-21.2 14 4.7-7.2 9.6-14.1 14-21.6-3.8-2-5.8-5.8-9.7-7.6-7.4 14.3-15.3 28.1-23.3 41.9zm268.8-21.2c2.5 2.5 4.6 5.3 6.8 8 3.3-1.2 5-6.2 8-6.4 3.6 12 7.4 23.6 11.4 35.1 8.1-7 16.3-13.9 24.5-20.7-1.7-3.2-4.7-5.2-6.8-8-4.5 2.5-7.3 6.8-11.4 9.7-4.6-12.1-8.4-24.9-13.6-36.4-6.1 6.4-12.8 12.2-18.9 18.7zm-2.1 50.8c10.8 4.3 21.2-6.2 19.9-16.9-1.6-13.5-15.6-22.1-20.3-32.6-3 2.6-7.2 4.1-9.3 7.6 5.7 9.8 13.1 17.9 17.8 28.8-5.2 6.1-10.6-6.7-13.6-11.4-3.8-6.1-6.3-11.4-9.7-14.4-3 2.3-6.8 3.9-9.3 6.8 8.1 9.3 12.4 27.2 24.5 32.1zm-242.1-10.6c8.6-12.8 17.4-25.4 26.7-37.7 7.8 4 14.8 11.4 14.8 22.9 0 21.1-26.6 29.8-41.5 14.8zm17.3-3.4c8.9.2 12.7-6.6 11.4-15.2-.6 0-.6-.5-1.3-.4-2.9 5.6-7.4 9.7-10.1 15.6zm39.8-17.3c-9.5 12.8-21.1 25.8-29.2 38.5 3.9 1.1 6.8 3.1 10.6 4.2 4.9-7.3 10.5-16 15.7-21.6-1.5 9.2-3.3 17.9-4.7 27.1 4.2.7 6.7 3.1 11 3.8 1.7-16.5 4.6-31.8 6.4-48.3-3.6-.9-6.3-2.7-9.8-3.7zm141 30.9c0 .3.1.5.4.4 2.2 2.9 4.7 6.2 7.2 9.3 2.5 3.2 4.7 6.9 7.6 8.5-.8-7.1-1.5-16.6-1.3-23.3 2.8 7 5.5 14.3 8 21.6 3.7-1.1 6.8-2.8 10.6-3.8-5.1-14.9-10.6-29.5-16.5-43.6-2.6 1.5-5.8 2.4-8.9 3.4-.3 8.3.6 17.8-.4 25.4-5.7-6.1-10.7-13-16.9-18.6-3.2.9-5.9 2.3-8.9 3.4 5.3 14.5 11 28.5 16.1 43.2 3.7-1.6 8.5-2 11-4.7-3.2-6.6-5.4-14.3-8.5-21.2h.5zm-105.8 4.6c10 6.1 3.4 21.6-8 22.4-7.3.6-14.7-3.9-20.7-5.1 4.1-14.9 8.9-29.2 13.1-44 10.9 1.9 23.7 4.8 23.3 15.7-.3 5.1-3.3 8.5-7.7 11zm-3.5-11c-1.3-5-7.6-1.6-6.3 4.7h4.7c1.2-1.5 2.2-2.7 1.6-4.7zm-10.5 21.2c7.6 4.7 10-8.1 1.7-7.2-.3 2.7-1.7 4.2-1.7 7.2zm64.7-30.9c-5.6 1.5-10.7 7.5-9.7 14.8.9 7.3 7.9 11 12.7 14.4 2.9 2.1 8.2 5.1 5.1 9.3-4.6-.9-6.5-4.5-10.2-6.4-2 2.9-4.9 5-7.2 7.6 5.5 4.7 10.1 12.5 19.9 11.8 5.5-.4 10.2-5.4 11.4-8.9 5.9-16.7-15.1-20.1-18.6-29.6 3.6-3.1 7.2 2.7 10.2 4.2 2.3-2.4 5.4-3.9 7.2-6.8-4.4-4.9-11.5-12.9-20.8-10.4zm-31.7 1.2c-5.7 15-11.1 30.4-16.5 45.7 4.1.2 7.5 1 11.8.8 2.4-8.9 5.2-17.4 8-25.8l4.2 27.5c4.1 0 7.8.4 11.4.8-2.7-16.3-6-31.8-8.5-48.3-3.5.1-7.1-.1-10.4-.7z"></path></svg>