<svg xmlns="http://www.w3.org/2000/svg" viewBox="0 0 46.4 45.6"><title>ico-calendar1</title><path d="M35.2,12h9.6v9.6H35.2Zm0,11.2h9.6v9.6H35.2Zm0,11.2h9.6V44H35.2ZM24,34.4h9.6V44H24Zm-11.2,0h9.6V44H12.8Zm-11.2,0h9.6V44H1.6Zm0-11.2h9.6v9.6H1.6Zm0-10.4V12h9.6v9.6H1.6ZM12.8,12h9.6v9.6H12.8Zm0,11.2h9.6v9.6H12.8Zm11.2,0h9.6v9.6H24ZM24,12h9.6v9.6H24ZM34.32,3.2A4,4,0,0,0,30.4,0a.8.8,0,0,0,0,1.6,2.4,2.4,0,1,1,0,4.8.8.8,0,0,0,0,1.6,4,4,0,0,0,3.92-3.2H44.8v5.6H1.6V4.8H15.2a.8.8,0,0,0,0-1.6H13.75A2.4,2.4,0,1,1,16,6.4.8.8,0,0,0,16,8a4,4,0,1,0-3.92-4.8H0V45.6H46.4V3.2Z"/><path d="M20.8,1.6a2.4,2.4,0,0,1,0,4.8.8.8,0,1,0,0,1.6,4,4,0,0,0,0-8,.8.8,0,1,0,0,1.6Z"/><path d="M25.6,1.6a2.4,2.4,0,1,1,0,4.8.8.8,0,0,0,0,1.6,4,4,0,0,0,0-8,.8.8,0,0,0,0,1.6Z"/><path d="M25,31.77a.8.8,0,0,0,1.13,0l2.64-2.63,2.63,2.63a.8.8,0,1,0,1.13-1.13L29.93,28l2.64-2.63a.8.8,0,1,0-1.13-1.13L28.8,26.87l-2.64-2.63A.8.8,0,1,0,25,25.37L27.67,28,25,30.63A.8.8,0,0,0,25,31.77Z"/></svg>