<svg xmlns="http://www.w3.org/2000/svg" viewBox="0 0 56.75 47.09"><title>ico-twitter</title><path d="M56.28,5.5a1.07,1.07,0,0,0-1.25,0,6.48,6.48,0,0,1-2.11.88c2.2-2.47,2.25-4.12,2.22-4.5a1.07,1.07,0,0,0-1.7-.8A11.4,11.4,0,0,1,47,3.34,11.87,11.87,0,0,0,38.76,0,12.17,12.17,0,0,0,26.7,12.25,12.52,12.52,0,0,0,26.82,14c-11.53-.13-20.9-11.2-21-11.32a1.07,1.07,0,0,0-1.75.15C.75,8.59,3,13.66,5,16.56A7.09,7.09,0,0,1,4.18,16a1.07,1.07,0,0,0-1.72.85,11.76,11.76,0,0,0,5,10.39,1.08,1.08,0,0,0-1.13,1.39A11.53,11.53,0,0,0,15,36.85c-5.51,4.3-13.62,2.91-13.71,2.9a1.08,1.08,0,0,0-.84,1.92c5.82,4.45,12.77,5.43,17.79,5.43A34,34,0,0,0,25,46.47c25.45-6,26.16-29.4,26.11-33.22,4.78-4.45,5.52-6.15,5.64-6.57A1.07,1.07,0,0,0,56.28,5.5Z"/></svg>