<svg xmlns="http://www.w3.org/2000/svg" viewBox="0 0 48 48"><title>ico-clock</title><path d="M24,46.4A22.4,22.4,0,1,1,46.4,24,22.42,22.42,0,0,1,24,46.4ZM24,0A24,24,0,1,0,48,24,24,24,0,0,0,24,0Z"/><path d="M24,25.5a1.6,1.6,0,1,1,1.6-1.6A1.6,1.6,0,0,1,24,25.5Zm.8-4.69V12.7a.8.8,0,0,0-1.6,0v8.11a3.2,3.2,0,0,0-2.28,2.29H15.2a.8.8,0,1,0,0,1.6h5.71a3.19,3.19,0,1,0,3.89-3.89Z"/><path d="M24,7.9a.8.8,0,0,0,.8-.8v-.8a.8.8,0,0,0-1.6,0v.8A.8.8,0,0,0,24,7.9Z"/><path d="M24,39.9a.8.8,0,0,0-.8.8v.8a.8.8,0,0,0,1.6,0v-.8A.8.8,0,0,0,24,39.9Z"/><path d="M41.6,23.1h-.8a.8.8,0,1,0,0,1.6h.8a.8.8,0,0,0,0-1.6Z"/><path d="M7.2,23.1H6.4a.8.8,0,0,0,0,1.6h.8a.8.8,0,1,0,0-1.6Z"/><path d="M35.88,10.89l-.57.57a.8.8,0,0,0,.57,1.37.79.79,0,0,0,.57-.23L37,12a.8.8,0,1,0-1.13-1.13Z"/><path d="M11.56,35.22l-.57.56a.8.8,0,0,0,.57,1.37.79.79,0,0,0,.57-.23l.57-.57a.8.8,0,0,0-1.13-1.13Z"/><path d="M36.44,35.22a.8.8,0,1,0-1.13,1.13l.57.57a.79.79,0,0,0,.57.23A.8.8,0,0,0,37,35.78Z"/><path d="M12.12,10.89A.8.8,0,1,0,11,12l.57.57a.79.79,0,0,0,.57.23.8.8,0,0,0,.57-1.37Z"/></svg>