<svg xmlns="http://www.w3.org/2000/svg" viewBox="0 0 511.63 401.99"><title>ico-mail</title><path d="M49.11,123.91q9.71,6.85,58.53,40.68t74.8,52.1q2.85,2,12.13,8.71T210,236.25q6.14,4.14,14.85,9.28a86.14,86.14,0,0,0,16.42,7.7,45.24,45.24,0,0,0,14.27,2.57h.58a45.28,45.28,0,0,0,14.28-2.57,86.22,86.22,0,0,0,16.42-7.7q8.71-5.14,14.85-9.28t15.42-10.85q9.28-6.72,12.14-8.71,26.26-18.27,133.62-92.79a135.63,135.63,0,0,0,34.83-35.12q14-20.55,14-43.1a43.76,43.76,0,0,0-13.57-32.26Q484.5,0,465.94,0H45.68q-22,0-33.83,14.84T0,52q0,18,15.7,39T49.11,123.91Z"/><path d="M483.07,154.45Q389.44,217.83,340.89,253q-16.27,12-26.41,18.7t-27,13.7q-16.84,7-31.4,7h-.58q-14.56,0-31.4-7t-27-13.7Q187,265,170.73,253q-38.55-28.26-141.9-98.5A151.23,151.23,0,0,1,0,129.62V356.3a44,44,0,0,0,13.42,32.27A44,44,0,0,0,45.68,402H465.95a45.82,45.82,0,0,0,45.68-45.69V129.62A157.44,157.44,0,0,1,483.07,154.45Z"/></svg>