<svg xmlns="http://www.w3.org/2000/svg" viewBox="0 0 47.52 48.54"><defs><style>.a{fill-rule:evenodd;}</style></defs><title>ico-instagram</title><path class="a" d="M35.34,48.54H12.19A12.25,12.25,0,0,1,0,36.25v-24A12.25,12.25,0,0,1,12.19,0H35.34A12.25,12.25,0,0,1,47.52,12.29v24A12.25,12.25,0,0,1,35.34,48.54Zm1.83-34.41a4.3,4.3,0,1,1,4.26-4.3A4.29,4.29,0,0,1,37.17,14.13Zm0,10.44a13.4,13.4,0,1,1-13.4-13.52A13.48,13.48,0,0,1,37.17,24.58Zm-13.4,8.6a8.6,8.6,0,1,1,8.53-8.6A8.58,8.58,0,0,1,23.76,33.18Zm0-14.75a6.14,6.14,0,1,0,6.09,6.14A6.13,6.13,0,0,0,23.76,18.43Z"/></svg>