<svg xmlns="http://www.w3.org/2000/svg" viewBox="0 0 46.4 45.6" enable-background="new 0 0 46.4 45.6"><title>ico-calendar1</title><path d="M1.6 12.8v-.8h43.2v32h-43.2v-31.2zm32.7-9.6c-.4-1.9-2-3.2-3.9-3.2-.4 0-.8.4-.8.8s.4.8.8.8c1.3 0 2.4 1.1 2.4 2.4 0 1.3-1.1 2.4-2.4 2.4-.4 0-.8.4-.8.8s.4.8.8.8c1.9 0 3.5-1.3 3.9-3.2h10.5v5.6h-43.2v-5.6h13.6c.4 0 .8-.4.8-.8s-.4-.8-.8-.8h-1.4c.4-1.2 1.8-1.9 3.1-1.5s1.9 1.8 1.5 3.1c-.3 1-1.3 1.6-2.3 1.6-.4 0-.8.4-.8.8-.1.4.3.8.7.8 2.2 0 4-1.8 4-4s-1.8-4-4-4c-1.9 0-3.5 1.3-3.9 3.2h-12.1v42.4h46.4v-42.4h-12.1zM20.8 1.6c1.3 0 2.4 1.1 2.4 2.4 0 1.3-1.1 2.4-2.4 2.4-.4 0-.8.4-.8.8s.4.8.8.8c2.2 0 4-1.8 4-4s-1.8-4-4-4c-.4 0-.8.4-.8.8s.4.8.8.8zM25.6 1.6c1.3 0 2.4 1.1 2.4 2.4 0 1.3-1.1 2.4-2.4 2.4-.4 0-.8.4-.8.8s.4.8.8.8c2.2 0 4-1.8 4-4s-1.8-4-4-4c-.4 0-.8.4-.8.8s.4.8.8.8zM5.9 23.7h34.6v1.6h-34.6zM5.9 30.7h34.6v1.6h-34.6zM5.9 37.8h34.6v1.6h-34.6zM5.9 16.6h34.6v1.6h-34.6z"/></svg>