<svg xmlns="http://www.w3.org/2000/svg" viewBox="0 0 48 48"><title>ico-location</title><path d="M24,11.2a4,4,0,1,1-4,4A4,4,0,0,1,24,11.2Zm0,9.6a5.6,5.6,0,1,0-5.6-5.6A5.61,5.61,0,0,0,24,20.8ZM14.14,5.63a13.75,13.75,0,0,1,19.43,0c4.84,4.84,5.44,13.95,1.26,19.52L23.86,41l-11-15.87C8.71,19.57,9.3,10.47,14.14,5.63ZM23.86,43.8,36.13,26.08c4.6-6.14,3.94-16.22-1.43-21.58a15.34,15.34,0,0,0-21.7,0C7.65,9.85,7,19.94,11.57,26.06Zm9.84-9.4A.8.8,0,1,0,33.51,36c8.41,1,12.89,3.66,12.89,5.2,0,2.17-8.52,5.2-22.4,5.2s-22.4-3-22.4-5.2C1.6,39.65,6.08,37,14.49,36a.8.8,0,1,0-.19-1.59C5.88,35.4,0,38.19,0,41.2,0,44.58,8.24,48,24,48s24-3.42,24-6.8C48,38.19,42.12,35.4,33.69,34.41Z"/></svg>