<svg xmlns="http://www.w3.org/2000/svg" viewBox="0 0 348.72 54.68"><defs><style>.a{fill:#2b2b2a;}.b{fill:#a22937;}.c{fill:#fff;}</style></defs><title>Asset 1</title><polygon class="a" points="9.89 37.81 20.13 37.81 20.13 43.04 0 43.04 0 2.32 9.89 2.32 9.89 37.81"/><path class="a" d="M47,24.84V43H38V40.14a17,17,0,0,1-4.19,2.73,7,7,0,0,1-2.62.47c-4.25,0-8.14-3.49-8.14-9.78,0-7,6.46-8.43,15-9.65-.59-5.82-7.1-6.11-10.48-4.89l-1-3.84a17.88,17.88,0,0,1,7.74-1.81c5.29,0,12.8,2.44,12.8,11.46M38,29.2c-5.94,1.22-7,2.15-7,4.89s1.16,4.59,3,4.59c1.63,0,4-2,4-2Z"/><path class="a" d="M63,14h4.36V19.2H63V33.91c0,3.26.64,5.47,4.19,6.16l-.58,3.49a8.56,8.56,0,0,1-1.22.06c-5.82,0-11.4-1.51-11.4-11.05V19.2H49.62V14H54V2.33h9Z"/><polygon class="a" points="88.01 43.05 81.26 43.05 70.15 13.96 79.75 13.96 86.44 31.59 92.67 13.96 98.19 13.96 88.01 43.05"/><path class="a" d="M110.4,4.77A4.8,4.8,0,1,1,105.64,0a4.8,4.8,0,0,1,4.77,4.77M110.11,43h-9V14h9Z"/><path class="a" d="M125.24,43c0,9.54-5.47,11.64-11.28,11.64a8.32,8.32,0,0,1-1.22-.06l-.58-3.49c3.55-.69,4.19-3.49,4.19-6.74V14h8.9Zm.29-38.28A4.8,4.8,0,1,1,120.76,0a4.8,4.8,0,0,1,4.77,4.77"/><path class="a" d="M153,24.84V43h-9V40.14a17,17,0,0,1-4.19,2.73,7,7,0,0,1-2.62.47c-4.24,0-8.14-3.49-8.14-9.78,0-7,6.45-8.43,15-9.65-.59-5.82-7.1-6.11-10.47-4.89l-1-3.84a17.92,17.92,0,0,1,7.74-1.81c5.3,0,12.8,2.44,12.8,11.46m-9,4.36c-5.94,1.22-7,2.15-7,4.89s1.16,4.59,3,4.59c1.63,0,4-2,4-2Z"/><polygon class="a" points="163.46 12.04 163.46 7.39 173.92 2.33 178.87 2.33 178.87 43.05 169.27 43.05 169.27 12.04 163.46 12.04"/><path class="a" d="M256.24,22.69c0,14-7.85,20.94-17.45,20.94-7.86,0-12.22-2.62-15.7-6.11l2.62-4.36c3.78,2.73,7,5.23,12.22,4.36s7.85-4.36,7.85-14.84c0-8.73-2.62-14.83-7.85-14.83-7,0-9.13,8.43-14,17.45-6,11.28-12.22,18.32-21.81,18.32-10.3,0-17.45-7-17.45-20.94s7.16-20.94,17.45-20.94a21.84,21.84,0,0,1,15.7,6.11l-2.62,4.36c-2.67-1.8-7.39-5.12-12.22-4.36-5.18.82-7.91,4.36-7.91,14.83s2.67,14.84,7.91,14.84c10.47,0,14-35.78,35.77-35.78,10.47,0,17.45,7.85,17.45,20.94"/><path class="b" d="M348.72,18.61H267.29V2.32h81.44Zm0,24.43H267.29V26.76h81.44Z"/><rect class="c" x="267.29" y="18.61" width="81.44" height="8.15"/></svg>